<?xml version="1.0" encoding="UTF-8"?>
<svg width="1200pt" height="1200pt" version="1.1" viewBox="0 0 1200 1200" xmlns="http://www.w3.org/2000/svg">
 <g fill="#ff814a">
  <path d="m465 762.5v52.5c5 105 97.5 135 135 135 75 0 135-60 135-135v-52.5c-42.5 25-87.5 37.5-135 37.5s-92.5-12.5-135-37.5z"/>
  <path d="m295 922.5v-172.5c-62.5 27.5-105 90-105 165v115c57.5-2.5 105-50 105-107.5z"/>
  <path d="m852.5 922.5v-185c-7.5 0-55-5-67.5-10v87.5c0 102.5-82.5 187.5-187.5 187.5-50 0-182.5-37.5-187.5-187.5v-87.5c-10 5-60 7.5-67.5 10v185c0 80-60 147.5-137.5 157.5 112.5 75 247.5 120 392.5 120s280-45 392.5-120c-77.5-10-137.5-77.5-137.5-157.5z"/>
  <path d="m905 750v172.5c0 57.5 47.5 107.5 105 107.5v-115c0-72.5-42.5-135-105-165z"/>
  <path d="m600 747.5c130-2.5 250-135 277.5-322.5 20-40 32.5-105 10-195 0 0-7.5-70-72.5-42.5 0 0 35-100-107.5-125 0 0-82.5 7.5-107.5-67.5-25 72.5-107.5 67.5-107.5 67.5-145 25-107.5 125-107.5 125-65-30-72.5 42.5-72.5 42.5-22.5 87.5-10 150 10 192.5 30 175 130 327.5 277.5 325zm0-527.5c172.5-87.5 217.5 95 227.5 200-35 175-125 267.5-227.5 275-105 7.5-207.5-132.5-227.5-277.5 10-102.5 55-282.5 227.5-197.5z"/>
 </g>
</svg>
