<?xml version="1.0" encoding="UTF-8"?>
<svg width="1200pt" height="1200pt" version="1.1" viewBox="0 0 1200 1200" xmlns="http://www.w3.org/2000/svg">
 <g fill="#3f3f3f">
  <path d="m966.75 540.25c-1.8047-81.352-35.094-158.83-92.867-216.14-57.77-57.305-135.52-89.969-216.88-91.113h-125c-81.457 4.0742-158.15 39.605-213.93 99.109-55.773 59.508-86.273 138.34-85.07 219.89-1.2031 83.395 30.742 163.86 88.82 223.71 58.078 59.859 137.54 94.219 220.93 95.535h61.25v95.75l72.75-46 17-11.5c181.25-120.25 273.25-231.25 273.25-338.5v-30.75zm-71.75 30.75v7.5c-5 71.5-77 156.5-220 254.5v-35.75h-143c-62.094-3.8477-120.32-31.434-162.63-77.043-42.305-45.613-65.441-105.75-64.617-167.96-0.86719-64.031 23.703-125.79 68.324-171.73 44.621-45.934 105.64-72.285 169.68-73.273h114.25c42.395 0.60938 83.879 12.371 120.29 34.098 36.41 21.727 66.453 52.656 87.117 89.68 20.664 37.02 31.215 78.828 30.598 121.22z"/>
  <path d="m497.25 504.5c12.625-0.40234 24.883 4.2695 34.043 12.969 9.1562 8.6992 14.449 20.703 14.699 33.332 0.24609 12.629-4.5742 24.832-13.383 33.883-8.8125 9.0508-20.879 14.199-33.512 14.293-12.629 0.089844-24.773-4.875-33.715-13.797-8.9453-8.918-13.941-21.047-13.883-33.68-0.13281-12.289 4.6055-24.133 13.176-32.941 8.5742-8.8047 20.285-13.859 32.574-14.059z"/>
  <path d="m702.75 504.5c12.625-0.40234 24.883 4.2695 34.043 12.969 9.1562 8.6992 14.449 20.703 14.699 33.332 0.24609 12.629-4.5742 24.832-13.383 33.883-8.8125 9.0508-20.879 14.199-33.512 14.293-12.629 0.089844-24.773-4.875-33.715-13.797-8.9453-8.918-13.941-21.047-13.883-33.68-0.13281-12.289 4.6055-24.133 13.176-32.941 8.5742-8.8047 20.285-13.859 32.574-14.059z"/>
 </g>
</svg>
