<?xml version="1.0" encoding="UTF-8"?>
<svg width="1200pt" height="1200pt" version="1.1" viewBox="0 0 1200 1200" xmlns="http://www.w3.org/2000/svg">
 <path d="m232.55 624.47c0-95.34-2.0625-190.8 0.88672-286.01h0.003906c0.035156-21.789 6.7422-43.039 19.219-60.902 12.473-17.859 30.117-31.477 50.559-39.012 47.855-17.832 98.617-35.27 148.86-37.766v0.003906c105.43-5.0195 211.05-4.4141 316.42 1.8125 46.117 2.6406 92.676 20.137 136.23 37.789v-0.003907c17.406 7 32.363 18.965 43.008 34.41 10.648 15.445 16.512 33.68 16.863 52.434 4.457 109.21 7.2852 218.48 8.4844 327.8 0.48047 42.66-6.3242 85.355-7.2852 128.09-2.1133 94.273-45.77 154.33-138.77 170.84-61.887 9.1016-124.46 12.754-186.98 10.918-73.586 0-147.38-2.9531-220.62-9.7188h0.003906c-37.316-4.0156-73.801-13.715-108.18-28.766-18.461-8.1406-34.336-21.191-45.902-37.723-11.566-16.535-18.379-35.922-19.699-56.055-7.8359-69.059-12.648-138.47-18.742-207.73zm55.453 9.7305-9.7578 0.3125c5.2578 60.406 9.8867 120.88 16.055 181.2 2.832 27.816 13.523 54.445 40.801 65.328h0.003906c28.145 11.98 57.898 19.758 88.305 23.078 76.309 6.2656 152.94 10.402 229.49 11.148 53.652 1.2031 107.3-2.2969 160.34-10.465 66-11.113 97.402-48.215 100.66-108 7.5352-139.09 19.715-278 6.9844-417.6-6.6602-72.961-24-98.734-94.934-117.74h0.003907c-13.379-3.9648-27.164-6.4102-41.09-7.2852-100.49-3.457-201.12-10.164-301.49-7.4414-51.516 1.3906-103.2 17.711-153.6 31.848-28.285 7.9453-43.309 29.484-42.574 63.445 2.125 97.332 0.80469 194.76 0.80469 292.18zm295.73 113.75c-96.758-2.3047-165.48-61.117-175.08-149.83-9.1094-84.133 55.523-170.27 145.45-193.87 126-33.086 242.04 55.199 229.51 174.66-10.047 95.496-99.852 171.43-199.92 169.05zm-8.6172-50.617 0.003906 0.003906c39.977 1.7227 79.156-11.543 109.86-37.199 67.273-56.594 63.086-148.57-8.4727-195.32-48.422-31.633-132-17.617-178.45 29.93-36.781 37.633-48.875 88.559-29.52 131.53 8.9531 20.902 23.793 38.75 42.711 51.367 18.918 12.617 41.098 19.461 63.836 19.695zm241.2-362.65c-16.344-4.7266-37.094 17.578-35.941 35.449 1.1992 18.562 12.434 32.398 30.527 27.758 13.285-3.3594 23.879-17.375 42.492-32.004-16.926-14.844-25.602-27.887-37.074-31.199z" fill="#2f39b2"/>
</svg>
