<?xml version="1.0" encoding="UTF-8"?>
<svg width="1200pt" height="1200pt" version="1.1" viewBox="0 0 1200 1200" xmlns="http://www.w3.org/2000/svg">
 <g fill="#3f3f3f">
  <path d="m1134 299.62c-3.5273-8.3906-12.055-13.75-21.043-13.078l-165.89 9.9961c-41.941-66.738-101.71-108.83-168.19-108.83-100.15 0-216.38 62.371-231.52 234.91-36.871-18.215-105.55-43.246-211.24-48.422-32.406-1.5781-64.035-9.1328-94.012-22.445-36.602-16.25-64.41-36.285-80.43-57.957-5.1992-7.0508-14.207-10.254-22.609-8.0039-8.4648 2.1875-14.742 9.3125-15.871 17.977-1.1836 9.1133-27.645 224.49 85.148 355.27 34.559 40.074 78.305 67.707 130.68 82.66-43.191 18.508-95.883 47.336-143.21 90.652-0.47266 0.38672-47.273 39.016-104.89 54.461-9.4805-2.4062-19.809 2.0312-24.398 11.195-5.293 10.578-1.0156 23.438 9.5625 28.742 3.0234 1.5156 172.48 84.355 376.25 84.355 162.59 0 347.02-52.746 486.13-241.61 45.055-61.168 69.863-147.78 69.863-243.89 0-29.691-2.8789-58.352-7.7852-85.805l128.09-115.98c6.7422-6.1055 8.8984-15.805 5.3711-24.195zm-230.04 444.44c-122.09 165.75-294.45 240.62-512.32 222.86-101.22-8.3086-189.44-35.793-242.73-55.906 42.922-19.809 72.887-44.543 75.082-46.402 92.84-84.941 211.15-110.02 212.33-110.27 10.703-2.1992 18.039-12.086 17.035-22.957-1.0039-10.871-10.012-19.254-20.926-19.461-82.113-1.5078-146.55-28.68-191.52-80.754-71.16-82.387-79.332-208.87-77.98-276.14 17.18 13.258 37.824 25.258 61.797 35.898 34.832 15.465 71.609 24.234 109.31 26.086 151.42 7.4062 219.28 58.449 219.85 58.887 6.4336 5.0859 15.191 6.0391 22.57 2.4805 7.375-3.5469 12.086-10.996 12.125-19.188 0.89844-168.56 98.898-228.62 190.3-228.62 54.785 0 103.98 37.758 138.14 97.406 0.097656 0.20313 0.22656 0.37109 0.32812 0.57031 29.801 52.305 48.121 121.27 48.121 197.05 0.003907 85.762-22.422 165.4-61.512 218.46zm85.574-352.12c-5.5508-18.891-12.207-36.906-19.902-53.836l85.023-5.1211z"/>
  <path d="m774.64 340.49c-0.64844-1.2773-1.2852-2.5625-1.9258-3.6406-0.85938-1.0664-1.7148-2.3555-2.793-3.2109-1.9258-1.9258-4.2812-3.6406-6.8516-4.7188-7.9297-3.2109-17.566-1.2773-23.355 4.7188-1.0781 0.85938-1.9375 2.1445-2.793 3.2109-0.63672 1.0781-1.2852 2.3633-1.9258 3.6406-0.42969 1.2891-0.85938 2.793-1.0664 4.082-0.42969 1.2773-0.42969 2.7812-0.42969 4.0703 0 2.9922 0.42969 5.5664 1.4961 8.3477 1.0664 2.5742 2.7812 4.9297 4.7188 6.8633 0.85938 1.0664 1.9258 1.9258 3.2109 2.7812 1.0664 0.63672 2.3555 1.2852 3.6406 1.9258 1.2852 0.42969 2.7812 0.85938 4.0703 1.2852 1.2852 0.21875 2.7812 0.21875 4.0703 0.21875 3.0039 0 5.5781-0.42969 8.3594-1.5078 2.5742-1.0664 4.9297-2.5625 6.8516-4.707 1.9375-1.9375 3.6406-4.2891 4.7188-6.8633 1.0664-2.7812 1.4961-5.3555 1.4961-8.3477 0-1.2852 0-2.793-0.42969-4.0703-0.20312-1.2852-0.63281-2.7891-1.0625-4.0781z"/>
 </g>
</svg>
